<?xml version="1.0" encoding="UTF-8"?>
<svg version="1.1" xmlns="http://www.w3.org/2000/svg" width="556" height="88">
<path d="M0 0 C0.495 1.485 0.495 1.485 1 3 C5.07964281 1.69844994 5.07964281 1.69844994 9 0 C10.99960012 -0.039992 13.00047242 -0.04346799 15 0 C15 0.66 15 1.32 15 2 C18.303314 2.88935377 21.62294375 3.46274105 25 4 C25 4.66 25 5.32 25 6 C25.556875 6.12375 26.11375 6.2475 26.6875 6.375 C29.2421041 7.06543354 31.59460135 7.89481684 34 9 C34.495 9.99 34.495 9.99 35 11 C35.639375 11.28875 36.27875 11.5775 36.9375 11.875 C39.53561671 13.29215457 39.77252514 14.32843708 41 17 C41.82612166 18.06811689 42.6603515 19.12998352 43.5 20.1875 C46.10053788 23.6929034 46.85029276 26.89844788 47.4453125 31.1796875 C47.62835937 31.78039062 47.81140625 32.38109375 48 33 C49.485 33.495 49.485 33.495 51 34 C50.814375 34.556875 50.62875 35.11375 50.4375 35.6875 C49.91654114 38.44113971 50.42711771 40.26289575 51 43 C51.04092937 45.33297433 51.04241723 47.66705225 51 50 C51 51.32 51 52.64 51 54 C50.75 56.125 50.75 56.125 50 58 C47.9375 59.25 47.9375 59.25 46 60 C46.495 61.98 46.495 61.98 47 64 C46.01 64 45.02 64 44 64 C44.33 64.99 44.66 65.98 45 67 C42 69 42 69 40 70 C40 70.66 40 71.32 40 72 C38.5 73.625 38.5 73.625 37 75 C37.33 75.66 37.66 76.32 38 77 C37.34 77 36.68 77 36 77 C35.505 78.485 35.505 78.485 35 80 C34.01 80 33.02 80 32 80 C32 79.34 32 78.68 32 78 C31.01 78.495 31.01 78.495 30 79 C29.34444881 81.52733235 29.34444881 81.52733235 29 84 C28.01 83.01 28.01 83.01 27 82 C26.24074219 82.32226562 25.48148438 82.64453125 24.69921875 82.9765625 C19.6986562 84.36003387 14.97891708 84.38164438 9.8125 84.375 C8.78761475 84.37628906 7.76272949 84.37757812 6.70678711 84.37890625 C-0.56617319 84.27698404 -6.5274837 83.54485 -13 80 C-13 79.34 -13 78.68 -13 78 C-13.8353125 77.62875 -13.8353125 77.62875 -14.6875 77.25 C-18.66048336 75.10244143 -21.49278699 72.76081952 -24 69 C-26.56282742 68.27034634 -26.56282742 68.27034634 -29 68 C-28.979375 66.948125 -28.95875 65.89625 -28.9375 64.8125 C-28.98896802 61.67295096 -29.26517187 59.03116604 -30 56 C-31.485 56.495 -31.485 56.495 -33 57 C-33.33 56.34 -33.66 55.68 -34 55 C-33.01 55 -32.02 55 -31 55 C-31.48726563 53.99646484 -31.48726563 53.99646484 -31.984375 52.97265625 C-33.22778831 49.33328115 -33.26525734 46.27853545 -33.25 42.4375 C-33.25515625 41.13683594 -33.2603125 39.83617187 -33.265625 38.49609375 C-33.02520223 35.33170587 -32.68411971 33.62642478 -31 31 C-31.33 31.33 -31.66 31.66 -32 32 C-32.33 31.01 -32.66 30.02 -33 29 C-31.68 28.67 -30.36 28.34 -29 28 C-28.896875 27.46375 -28.79375 26.9275 -28.6875 26.375 C-27.81907303 23.37497956 -26.44379704 20.7620465 -25 18 C-24.34 18 -23.68 18 -23 18 C-23 17.34 -23 16.68 -23 16 C-22.34 16 -21.68 16 -21 16 C-20.79375 15.443125 -20.5875 14.88625 -20.375 14.3125 C-18.43964602 11.05758649 -16.05045791 9.21307731 -13 7 C-10.1875 6.3125 -10.1875 6.3125 -8 6 C-7.67 5.34 -7.34 4.68 -7 4 C-3.9375 3.375 -3.9375 3.375 -1 3 C-0.67 2.01 -0.34 1.02 0 0 Z M48 54 C48.33 54.66 48.66 55.32 49 56 C49.33 55.34 49.66 54.68 50 54 C49.34 54 48.68 54 48 54 Z M-27 65 C-27 65.66 -27 66.32 -27 67 C-26.34 66.67 -25.68 66.34 -25 66 C-25.66 65.67 -26.32 65.34 -27 65 Z M33 76 C33.33 76.99 33.66 77.98 34 79 C34.33 78.01 34.66 77.02 35 76 C34.34 76 33.68 76 33 76 Z " fill="#F9F9F9" transform="translate(505,0)"/>
<path d="M0 0 C0.928125 0.20625 1.85625 0.4125 2.8125 0.625 C2.8125 1.285 2.8125 1.945 2.8125 2.625 C4.39556647 2.79418268 5.97896719 2.96023936 7.5625 3.125 C8.88507812 3.26421875 8.88507812 3.26421875 10.234375 3.40625 C13.04554835 3.68136313 13.04554835 3.68136313 16.8125 3.625 C17.8025 4.285 18.7925 4.945 19.8125 5.625 C19.8125 6.615 19.8125 7.605 19.8125 8.625 C21.4625 8.955 23.1125 9.285 24.8125 9.625 C24.8125 10.285 24.8125 10.945 24.8125 11.625 C26.1325 11.625 27.4525 11.625 28.8125 11.625 C29.88775194 14.27728812 30.90706151 16.90868454 31.8125 19.625 C33.82758358 20.35823796 33.82758358 20.35823796 35.8125 20.625 C35.88597656 21.58212891 35.88597656 21.58212891 35.9609375 22.55859375 C36.07308594 23.79802734 36.07308594 23.79802734 36.1875 25.0625 C36.29191406 26.29806641 36.29191406 26.29806641 36.3984375 27.55859375 C36.60339844 28.58146484 36.60339844 28.58146484 36.8125 29.625 C37.4725 29.955 38.1325 30.285 38.8125 30.625 C38.4825 31.285 38.1525 31.945 37.8125 32.625 C38.4725 32.955 39.1325 33.285 39.8125 33.625 C39.8125 39.895 39.8125 46.165 39.8125 52.625 C39.1525 52.625 38.4925 52.625 37.8125 52.625 C37.8125 53.3675 37.8125 54.11 37.8125 54.875 C37.8125 57.125 37.8125 59.375 37.8125 61.625 C36.3275 62.12 36.3275 62.12 34.8125 62.625 C34.4403958 63.94803717 34.10619827 65.28237935 33.8125 66.625 C32.8225 67.12 32.8225 67.12 31.8125 67.625 C31.8125 68.945 31.8125 70.265 31.8125 71.625 C30.8225 71.625 29.8325 71.625 28.8125 71.625 C26.66785559 73.56209818 24.79031146 75.65005158 22.875 77.8125 C20.4772867 79.91958138 18.88896954 80.05828193 15.8125 80.625 C15.1525 81.615 14.4925 82.605 13.8125 83.625 C1.51699905 85.84700613 -13.30613408 85.62295484 -23.8515625 78.515625 C-24.62242188 77.89171875 -25.39328125 77.2678125 -26.1875 76.625 C-27.18910156 75.84382813 -27.18910156 75.84382813 -28.2109375 75.046875 C-29.5652236 73.94055677 -30.88243628 72.78897575 -32.1875 71.625 C-32.8475 71.625 -33.5075 71.625 -34.1875 71.625 C-34.620625 70.531875 -35.05375 69.43875 -35.5 68.3125 C-36.44544689 66.07210452 -37.04486391 64.76215008 -38.8125 63.0625 C-40.1875 61.625 -40.1875 61.625 -40.6875 58.5625 C-40.8525 57.593125 -41.0175 56.62375 -41.1875 55.625 C-42.1775 54.965 -43.1675 54.305 -44.1875 53.625 C-43.1975 53.13 -43.1975 53.13 -42.1875 52.625 C-42.8475 52.295 -43.5075 51.965 -44.1875 51.625 C-44.1875 42.11741046 -42.6609161 32.4664228 -39.1875 23.625 C-38.5275 23.625 -37.8675 23.625 -37.1875 23.625 C-36.8575 21.315 -36.5275 19.005 -36.1875 16.625 C-34.8675 16.295 -33.5475 15.965 -32.1875 15.625 C-32.1875 14.965 -32.1875 14.305 -32.1875 13.625 C-31.5275 13.625 -30.8675 13.625 -30.1875 13.625 C-30.1875 12.965 -30.1875 12.305 -30.1875 11.625 C-29.56875 11.33625 -28.95 11.0475 -28.3125 10.75 C-26.05424235 9.68779958 -26.05424235 9.68779958 -24.1875 7.625 C-23.506875 7.46 -22.82625 7.295 -22.125 7.125 C-21.485625 6.96 -20.84625 6.795 -20.1875 6.625 C-19.8575 5.965 -19.5275 5.305 -19.1875 4.625 C-17.08286921 4.0452119 -14.95185724 3.55948315 -12.8125 3.125 C-8.32655823 2.20990766 -4.30059867 -0.50595278 0 0 Z " fill="#FAFAFA" transform="translate(44.1875,0.375)"/>
<path d="M0 0 C0.61875 0.66 1.2375 1.32 1.875 2 C3.75637427 4.2284549 3.75637427 4.2284549 6 4 C5.67 4.99 5.34 5.98 5 7 C5.91129333 8.9114284 5.91129333 8.9114284 7.3125 10.8125 C9.50829857 14.11229729 10.94075148 17.14818721 12 21 C12.66 21 13.32 21 14 21 C15.625 23 15.625 23 17 25 C18.32 24.67 19.64 24.34 21 24 C21.495 25.485 21.495 25.485 22 27 C22.99 27.66 23.98 28.32 25 29 C25 29.66 25 30.32 25 31 C25.969375 31.12375 26.93875 31.2475 27.9375 31.375 C28.948125 31.58125 29.95875 31.7875 31 32 C31.33 32.66 31.66 33.32 32 34 C40.07522506 36.45017513 47.39369 33.82121328 55 31 C55.93199219 30.68675781 56.86398437 30.37351562 57.82421875 30.05078125 C58.54222656 29.70402344 59.26023437 29.35726562 60 29 C60.495 27.515 60.495 27.515 61 26 C61.99 25.195625 62.98 24.39125 64 23.5625 C66.99762442 21.00202914 67.38212264 20.58368868 68 17 C68.99 16.34 69.98 15.68 71 15 C71.33 14.01 71.66 13.02 72 12 C72.66 12 73.32 12 74 12 C73.95875 11.278125 73.9175 10.55625 73.875 9.8125 C74.00921305 6.79270631 74.75170619 4.73064271 76 2 C76.66 2 77.32 2 78 2 C78.33 1.34 78.66 0.68 79 0 C79.495 0.99 79.495 0.99 80 2 C80.99 2 81.98 2 83 2 C83 2.66 83 3.32 83 4 C84.98 4 86.96 4 89 4 C89 4.66 89 5.32 89 6 C90.65 6 92.3 6 94 6 C94 6.66 94 7.32 94 8 C95.918125 7.938125 95.918125 7.938125 97.875 7.875 C100.0546875 7.8046875 100.0546875 7.8046875 102 8 C102.99 8.99 102.99 8.99 104 10 C104.66 9.67 105.32 9.34 106 9 C107.81975482 14.12839994 105.8599099 18.17684382 104 23 C103.34 23 102.68 23 102 23 C101.71125 23.86625 101.4225 24.7325 101.125 25.625 C99.5625 30.3125 99.5625 30.3125 98 35 C97.01 35 96.02 35 95 35 C93.5393715 37.64738916 93 38.89448334 93 42 C91.02 42.99 91.02 42.99 89 44 C89 44.66 89 45.32 89 46 C88.0409375 46.433125 88.0409375 46.433125 87.0625 46.875 C84.84793921 47.82823451 84.84793921 47.82823451 84 50 C83.34 50.99 82.68 51.98 82 53 C81.01 53 80.02 53 79 53 C79.33 53.99 79.66 54.98 80 56 C79.40832031 56.17015625 78.81664062 56.3403125 78.20703125 56.515625 C72.98667031 58.10366592 72.98667031 58.10366592 68.5 61.125 C64.9112513 63.81656153 61.38704395 63.8088434 57 64 C56.505 65.485 56.505 65.485 56 67 C54 67 52 67 50 67 C49.33226562 67.09539062 48.66453125 67.19078125 47.9765625 67.2890625 C38.10090847 68.69987022 28.66682814 66.44964727 19.0234375 64.3671875 C16.850782 63.91072444 16.850782 63.91072444 14 64 C11.875 63.1875 11.875 63.1875 10 62 C9.67 61.01 9.34 60.02 9 59 C8.34 59 7.68 59 7 59 C6.195625 58.175 5.39125 57.35 4.5625 56.5 C2.23877584 53.65083807 2.23877584 53.65083807 -1 54 C-1.66 52.68 -2.32 51.36 -3 50 C-3.99 50 -4.98 50 -6 50 C-6 49.01 -6 48.02 -6 47 C-6.66 46.67 -7.32 46.34 -8 46 C-8 45.34 -8 44.68 -8 44 C-9.32 44 -10.64 44 -12 44 C-12 42.68 -12 41.36 -12 40 C-12.66 40 -13.32 40 -14 40 C-14.226875 39.2575 -14.45375 38.515 -14.6875 37.75 C-16.24407532 34.48860409 -18.08518854 33.07105025 -21 31 C-20.67 30.34 -20.34 29.68 -20 29 C-20.75 25.91666667 -20.75 25.91666667 -22 23 C-22.66 22.67 -23.32 22.34 -24 22 C-24.8515625 20.22265625 -24.8515625 20.22265625 -25.625 18.0625 C-25.88539063 17.35222656 -26.14578125 16.64195313 -26.4140625 15.91015625 C-27 14 -27 14 -27 12 C-26.34 12 -25.68 12 -25 12 C-25.33 11.01 -25.66 10.02 -26 9 C-24.68 9 -23.36 9 -22 9 C-19.66365343 8.68848712 -17.32961443 8.35840222 -15 8 C-15 7.34 -15 6.68 -15 6 C-14.12988281 5.85304688 -14.12988281 5.85304688 -13.2421875 5.703125 C-7.90353568 4.68120485 -4.31114768 3.31626744 0 0 Z M19 25 C18.67 25.66 18.34 26.32 18 27 C18.66 27 19.32 27 20 27 C19.67 26.34 19.34 25.68 19 25 Z " fill="#F5F5F5" transform="translate(238,20)"/>
<path d="M0 0 C0.99 0.66 1.98 1.32 3 2 C1.35 2 -0.3 2 -2 2 C-1.34 1.34 -0.68 0.68 0 0 Z " fill="#000000" transform="translate(18,78)"/>
<path d="M0 0 C1 4 1 4 1 4 Z " fill="#000000" transform="translate(536,80)"/>
<path d="M0 0 C0.99 1.485 0.99 1.485 2 3 C1.34 3 0.68 3 0 3 C0 2.01 0 1.02 0 0 Z " fill="#000000" transform="translate(484,73)"/>
<path d="M0 0 C0.99 0.33 1.98 0.66 3 1 C2.01 1.33 1.02 1.66 0 2 C0 1.34 0 0.68 0 0 Z " fill="#000000" transform="translate(471,58)"/>
<path d="M0 0 C0.66 0.66 1.32 1.32 2 2 C1.34 2 0.68 2 0 2 C0 1.34 0 0.68 0 0 Z " fill="#000000" transform="translate(260,85)"/>
<path d="M0 0 C0.66 0.66 1.32 1.32 2 2 C1.34 2 0.68 2 0 2 C0 1.34 0 0.68 0 0 Z " fill="#000000" transform="translate(488,77)"/>
<path d="M0 0 C0.33 0.66 0.66 1.32 1 2 C0.34 1.67 -0.32 1.34 -1 1 C-0.67 0.67 -0.34 0.34 0 0 Z " fill="#000000" transform="translate(312,78)"/>
<path d="" fill="#000000" transform="translate(0,0)"/>
<path d="" fill="#000000" transform="translate(0,0)"/>
<path d="M0 0 C3 1 3 1 3 1 Z " fill="#000000" transform="translate(33,0)"/>
<path d="" fill="#000000" transform="translate(0,0)"/>
<path d="M0 0 C2 1 2 1 2 1 Z " fill="#000000" transform="translate(271,53)"/>
<path d="M0 0 C2 1 2 1 2 1 Z " fill="#000000" transform="translate(283,52)"/>
<path d="" fill="#000000" transform="translate(0,0)"/>
<path d="M0 0 C2 1 2 1 2 1 Z " fill="#000000" transform="translate(296,45)"/>
<path d="M0 0 C2 1 2 1 2 1 Z " fill="#000000" transform="translate(554,31)"/>
<path d="M0 0 C2 1 2 1 2 1 Z " fill="#000000" transform="translate(554,29)"/>
<path d="M0 0 C2 1 2 1 2 1 Z " fill="#000000" transform="translate(341,28)"/>
<path d="M0 0 C2 1 2 1 2 1 Z " fill="#000000" transform="translate(82,28)"/>
<path d="M0 0 C2 1 2 1 2 1 Z " fill="#000000" transform="translate(227,24)"/>
<path d="M0 0 C2 1 2 1 2 1 Z " fill="#000000" transform="translate(546,16)"/>
<path d="M0 0 C2 1 2 1 2 1 Z " fill="#000000" transform="translate(534,6)"/>
<path d="M0 0 C2 1 2 1 2 1 Z " fill="#000000" transform="translate(493,4)"/>
<path d="M0 0 C2 1 2 1 2 1 Z " fill="#000000" transform="translate(509,0)"/>
<path d="M0 0 C2 1 2 1 2 1 Z " fill="#000000" transform="translate(37,0)"/>
<path d="" fill="#000000" transform="translate(0,0)"/>
<path d="" fill="#000000" transform="translate(0,0)"/>
<path d="" fill="#000000" transform="translate(0,0)"/>
<path d="" fill="#000000" transform="translate(0,0)"/>
<path d="" fill="#000000" transform="translate(0,0)"/>
<path d="" fill="#000000" transform="translate(0,0)"/>
<path d="" fill="#000000" transform="translate(0,0)"/>
<path d="" fill="#000000" transform="translate(0,0)"/>
<path d="" fill="#000000" transform="translate(0,0)"/>
<path d="" fill="#000000" transform="translate(0,0)"/>
<path d="" fill="#000000" transform="translate(0,0)"/>
<path d="" fill="#000000" transform="translate(0,0)"/>
<path d="" fill="#000000" transform="translate(0,0)"/>
<path d="" fill="#000000" transform="translate(0,0)"/>
<path d="" fill="#000000" transform="translate(0,0)"/>
<path d="" fill="#000000" transform="translate(0,0)"/>
<path d="" fill="#000000" transform="translate(0,0)"/>
<path d="" fill="#000000" transform="translate(0,0)"/>
<path d="" fill="#000000" transform="translate(0,0)"/>
<path d="" fill="#000000" transform="translate(0,0)"/>
<path d="" fill="#000000" transform="translate(0,0)"/>
<path d="" fill="#000000" transform="translate(0,0)"/>
<path d="" fill="#000000" transform="translate(0,0)"/>
<path d="" fill="#000000" transform="translate(0,0)"/>
<path d="" fill="#000000" transform="translate(0,0)"/>
<path d="" fill="#000000" transform="translate(0,0)"/>
<path d="" fill="#000000" transform="translate(0,0)"/>
<path d="" fill="#000000" transform="translate(0,0)"/>
<path d="" fill="#000000" transform="translate(0,0)"/>
<path d="" fill="#000000" transform="translate(0,0)"/>
<path d="" fill="#000000" transform="translate(0,0)"/>
<path d="" fill="#000000" transform="translate(0,0)"/>
<path d="" fill="#000000" transform="translate(0,0)"/>
<path d="" fill="#000000" transform="translate(0,0)"/>
<path d="" fill="#000000" transform="translate(0,0)"/>
<path d="" fill="#000000" transform="translate(0,0)"/>
<path d="" fill="#000000" transform="translate(0,0)"/>
<path d="" fill="#000000" transform="translate(0,0)"/>
<path d="" fill="#000000" transform="translate(0,0)"/>
<path d="" fill="#000000" transform="translate(0,0)"/>
<path d="" fill="#000000" transform="translate(0,0)"/>
<path d="" fill="#000000" transform="translate(0,0)"/>
<path d="" fill="#000000" transform="translate(0,0)"/>
<path d="" fill="#000000" transform="translate(0,0)"/>
<path d="" fill="#000000" transform="translate(0,0)"/>
<path d="" fill="#000000" transform="translate(0,0)"/>
<path d="" fill="#000000" transform="translate(0,0)"/>
<path d="" fill="#000000" transform="translate(0,0)"/>
<path d="" fill="#000000" transform="translate(0,0)"/>
<path d="" fill="#000000" transform="translate(0,0)"/>
<path d="" fill="#000000" transform="translate(0,0)"/>
<path d="" fill="#000000" transform="translate(0,0)"/>
<path d="" fill="#000000" transform="translate(0,0)"/>
<path d="" fill="#000000" transform="translate(0,0)"/>
<path d="" fill="#000000" transform="translate(0,0)"/>
<path d="" fill="#000000" transform="translate(0,0)"/>
<path d="" fill="#000000" transform="translate(0,0)"/>
<path d="" fill="#000000" transform="translate(0,0)"/>
<path d="" fill="#000000" transform="translate(0,0)"/>
<path d="" fill="#000000" transform="translate(0,0)"/>
<path d="" fill="#000000" transform="translate(0,0)"/>
<path d="" fill="#000000" transform="translate(0,0)"/>
<path d="" fill="#000000" transform="translate(0,0)"/>
<path d="" fill="#000000" transform="translate(0,0)"/>
<path d="" fill="#000000" transform="translate(0,0)"/>
<path d="" fill="#000000" transform="translate(0,0)"/>
<path d="" fill="#000000" transform="translate(0,0)"/>
<path d="" fill="#000000" transform="translate(0,0)"/>
<path d="" fill="#000000" transform="translate(0,0)"/>
<path d="" fill="#000000" transform="translate(0,0)"/>
<path d="" fill="#000000" transform="translate(0,0)"/>
<path d="" fill="#000000" transform="translate(0,0)"/>
<path d="" fill="#000000" transform="translate(0,0)"/>
<path d="" fill="#000000" transform="translate(0,0)"/>
<path d="" fill="#000000" transform="translate(0,0)"/>
<path d="" fill="#000000" transform="translate(0,0)"/>
<path d="" fill="#000000" transform="translate(0,0)"/>
<path d="" fill="#000000" transform="translate(0,0)"/>
<path d="" fill="#000000" transform="translate(0,0)"/>
<path d="" fill="#000000" transform="translate(0,0)"/>
<path d="" fill="#000000" transform="translate(0,0)"/>
<path d="" fill="#000000" transform="translate(0,0)"/>
<path d="" fill="#000000" transform="translate(0,0)"/>
<path d="" fill="#000000" transform="translate(0,0)"/>
<path d="" fill="#000000" transform="translate(0,0)"/>
<path d="" fill="#000000" transform="translate(0,0)"/>
<path d="" fill="#000000" transform="translate(0,0)"/>
</svg>
